# xmcd CD database file
#
# Track frame offsets:
#	150
#	16937
#	38237
#	58712
#	73912
#	93800
#	105025
#
# Disc length: 1661 seconds
#
# Revision: 0
# Processed by: cddbd v1.5.1PL0 Copyright (c) Steve Scherf et al.
# Submitted via: CDex 1.51
#
DISCID=4d067b07
DTITLE=Big Spirit - Meditation Music with Sutra of Buddhism Kannonkyou
DYEAR=1900
DGENRE=New Age
TTITLE0=Saporai
TTITLE1=No Border
TTITLE2=Dojoe
TTITLE3=The PLace of God Flower
TTITLE4=Open Mind
TTITLE5=Jusan
TTITLE6=Thousand Mercy
EXTD=
EXTT0=
EXTT1=
EXTT2=
EXTT3=
EXTT4=
EXTT5=
EXTT6=
PLAYORDER=
